<svg xmlns="http://www.w3.org/2000/svg" xmlns:xlink="http://www.w3.org/1999/xlink" viewBox="0,0,255.99431,255.99431" width="100px" height="100px"><g fill="#ec751a" fill-rule="nonzero" stroke="none" stroke-width="1" stroke-linecap="butt" stroke-linejoin="miter" stroke-miterlimit="10" stroke-dasharray="" stroke-dashoffset="0" font-family="none" font-weight="none" font-size="none" text-anchor="none" style="mix-blend-mode: normal"><g transform="scale(5.12,5.12)"><path d="M7,7c-1.64453,0 -3,1.35547 -3,3v22c0,0.75 0.28516,1.44141 0.75,1.96875l-4.34375,5.8125c-0.28125,0.37891 -0.40625,0.82813 -0.40625,1.21875c0,0.00781 0,0.02344 0,0.03125v0.96875c-0.01562,1.64453 1.35547,3 3,3h44c1.64453,0 3.01563,-1.35547 3,-3v-0.96875c0,-0.00781 0,-0.02344 0,-0.03125c0,-0.39062 -0.12109,-0.83984 -0.40625,-1.21875l-4.34375,-5.8125c0.46484,-0.52734 0.75,-1.21875 0.75,-1.96875v-22c0,-1.64453 -1.35547,-3 -3,-3zM7,9h36c0.56641,0 1,0.43359 1,1v22c0,0.56641 -0.43359,1 -1,1h-36c-0.56641,0 -1,-0.43359 -1,-1v-22c0,-0.56641 0.43359,-1 1,-1zM24,11v20h2v-20zM9.71875,12c-0.55078,0.07813 -0.9375,0.58984 -0.85937,1.14063c0.07813,0.55078 0.58984,0.9375 1.14063,0.85938h10c0.35938,0.00391 0.69531,-0.18359 0.87891,-0.49609c0.17969,-0.3125 0.17969,-0.69531 0,-1.00781c-0.18359,-0.3125 -0.51953,-0.5 -0.87891,-0.49609h-10c-0.03125,0 -0.0625,0 -0.09375,0c-0.03125,0 -0.0625,0 -0.09375,0c-0.03125,0 -0.0625,0 -0.09375,0zM29.71875,12c-0.55078,0.07813 -0.9375,0.58984 -0.85937,1.14063c0.07813,0.55078 0.58984,0.9375 1.14063,0.85938h10c0.35938,0.00391 0.69531,-0.18359 0.87891,-0.49609c0.17969,-0.3125 0.17969,-0.69531 0,-1.00781c-0.18359,-0.3125 -0.51953,-0.5 -0.87891,-0.49609h-10c-0.03125,0 -0.0625,0 -0.09375,0c-0.03125,0 -0.0625,0 -0.09375,0c-0.03125,0 -0.0625,0 -0.09375,0zM9.71875,16c-0.55078,0.07813 -0.9375,0.58984 -0.85937,1.14063c0.07813,0.55078 0.58984,0.9375 1.14063,0.85938h7c0.35938,0.00391 0.69531,-0.18359 0.87891,-0.49609c0.17969,-0.3125 0.17969,-0.69531 0,-1.00781c-0.18359,-0.3125 -0.51953,-0.5 -0.87891,-0.49609h-7c-0.03125,0 -0.0625,0 -0.09375,0c-0.03125,0 -0.0625,0 -0.09375,0c-0.03125,0 -0.0625,0 -0.09375,0zM29.71875,16c-0.55078,0.07813 -0.9375,0.58984 -0.85937,1.14063c0.07813,0.55078 0.58984,0.9375 1.14063,0.85938h7c0.35938,0.00391 0.69531,-0.18359 0.87891,-0.49609c0.17969,-0.3125 0.17969,-0.69531 0,-1.00781c-0.18359,-0.3125 -0.51953,-0.5 -0.87891,-0.49609h-7c-0.03125,0 -0.0625,0 -0.09375,0c-0.03125,0 -0.0625,0 -0.09375,0c-0.03125,0 -0.0625,0 -0.09375,0zM9.71875,20c-0.55078,0.07813 -0.9375,0.58984 -0.85937,1.14063c0.07813,0.55078 0.58984,0.9375 1.14063,0.85938h10c0.35938,0.00391 0.69531,-0.18359 0.87891,-0.49609c0.17969,-0.3125 0.17969,-0.69531 0,-1.00781c-0.18359,-0.3125 -0.51953,-0.5 -0.87891,-0.49609h-10c-0.03125,0 -0.0625,0 -0.09375,0c-0.03125,0 -0.0625,0 -0.09375,0c-0.03125,0 -0.0625,0 -0.09375,0zM29.71875,20c-0.55078,0.07813 -0.9375,0.58984 -0.85937,1.14063c0.07813,0.55078 0.58984,0.9375 1.14063,0.85938h10c0.35938,0.00391 0.69531,-0.18359 0.87891,-0.49609c0.17969,-0.3125 0.17969,-0.69531 0,-1.00781c-0.18359,-0.3125 -0.51953,-0.5 -0.87891,-0.49609h-10c-0.03125,0 -0.0625,0 -0.09375,0c-0.03125,0 -0.0625,0 -0.09375,0c-0.03125,0 -0.0625,0 -0.09375,0zM9.71875,24c-0.55078,0.07813 -0.9375,0.58984 -0.85937,1.14063c0.07813,0.55078 0.58984,0.9375 1.14063,0.85938h7c0.35938,0.00391 0.69531,-0.18359 0.87891,-0.49609c0.17969,-0.3125 0.17969,-0.69531 0,-1.00781c-0.18359,-0.3125 -0.51953,-0.5 -0.87891,-0.49609h-7c-0.03125,0 -0.0625,0 -0.09375,0c-0.03125,0 -0.0625,0 -0.09375,0c-0.03125,0 -0.0625,0 -0.09375,0zM29.71875,24c-0.55078,0.07813 -0.9375,0.58984 -0.85937,1.14063c0.07813,0.55078 0.58984,0.9375 1.14063,0.85938h7c0.35938,0.00391 0.69531,-0.18359 0.87891,-0.49609c0.17969,-0.3125 0.17969,-0.69531 0,-1.00781c-0.18359,-0.3125 -0.51953,-0.5 -0.87891,-0.49609h-7c-0.03125,0 -0.0625,0 -0.09375,0c-0.03125,0 -0.0625,0 -0.09375,0c-0.03125,0 -0.0625,0 -0.09375,0zM9.71875,28c-0.55078,0.07813 -0.9375,0.58984 -0.85937,1.14063c0.07813,0.55078 0.58984,0.9375 1.14063,0.85938h10c0.35938,0.00391 0.69531,-0.18359 0.87891,-0.49609c0.17969,-0.3125 0.17969,-0.69531 0,-1.00781c-0.18359,-0.3125 -0.51953,-0.5 -0.87891,-0.49609h-10c-0.03125,0 -0.0625,0 -0.09375,0c-0.03125,0 -0.0625,0 -0.09375,0c-0.03125,0 -0.0625,0 -0.09375,0zM29.71875,28c-0.55078,0.07813 -0.9375,0.58984 -0.85937,1.14063c0.07813,0.55078 0.58984,0.9375 1.14063,0.85938h10c0.35938,0.00391 0.69531,-0.18359 0.87891,-0.49609c0.17969,-0.3125 0.17969,-0.69531 0,-1.00781c-0.18359,-0.3125 -0.51953,-0.5 -0.87891,-0.49609h-10c-0.03125,0 -0.0625,0 -0.09375,0c-0.03125,0 -0.0625,0 -0.09375,0c-0.03125,0 -0.0625,0 -0.09375,0zM6.75,35h36.75c0.00781,0 0.02734,-0.00781 0.03125,0l4.46875,5.96875v1.03125c0.00391,0.55859 -0.44141,1 -1,1h-44c-0.55859,0 -1.00391,-0.44141 -1,-1v-1.03125l4.3125,-5.75c0.14453,-0.07422 0.28906,-0.14453 0.4375,-0.21875zM19.5,38c-0.33984,0 -0.66016,0.18359 -0.84375,0.46875l-1.65625,2.53125h16l-1.65625,-2.53125c-0.18359,-0.28516 -0.50391,-0.46875 -0.84375,-0.46875z"></path></g></g></svg>