<svg fill="#ec751a" xmlns="http://www.w3.org/2000/svg"  viewBox="0 0 110 110" width="132px" height="132px"><path d="M 29.449219 11.410156 C 27.489258 11.410156 25.888672 13.000732 25.888672 14.970703 C 25.888672 15.470703 25.888428 21.669312 25.898438 58.279297 C 25.898438 60.24939 27.498718 61.849609 29.46875 61.849609 L 38.998047 61.849609 L 38.998047 77.810547 C 38.998047 79.540527 37.589355 80.949219 35.859375 80.949219 L 29.517578 80.949219 L 29.517578 75.160156 C 29.517578 73.720215 28.33844 72.539062 26.898438 72.539062 L 11.378906 72.539062 C 9.9288941 72.539062 8.7480469 73.720215 8.7480469 75.160156 L 8.7480469 88.75 C 8.7480469 90.189941 9.928894 91.369141 11.378906 91.369141 L 26.898438 91.369141 C 28.33844 91.369141 29.517578 90.189941 29.517578 88.75 L 29.517578 82.949219 L 35.859375 82.949219 C 38.689331 82.949219 40.998047 80.650513 40.998047 77.810547 L 40.998047 61.849609 L 54.779297 61.849609 L 54.779297 79.400391 L 48.558594 79.400391 C 47.108643 79.400391 45.9375 80.57959 45.9375 82.019531 L 45.9375 95.609375 C 45.9375 95.959473 46.008911 96.289917 46.128906 96.589844 L 6.9980469 96.589844 C 6.4480591 96.589844 5.9980469 97.029907 5.9980469 97.589844 C 5.9980469 98.139893 6.4480591 98.589844 6.9980469 98.589844 L 95.96875 98.589844 C 96.528748 98.589844 96.96875 98.139893 96.96875 97.589844 C 96.96875 97.029907 96.528748 96.589844 95.96875 96.589844 L 66.507812 96.589844 C 66.627808 96.289917 66.699219 95.959473 66.699219 95.609375 L 66.699219 82.019531 C 66.699219 80.57959 65.518127 79.400391 64.078125 79.400391 L 56.779297 79.400391 L 56.779297 61.849609 L 70.517578 61.849609 L 70.517578 77.810547 C 70.517578 80.650513 72.827942 82.949219 75.667969 82.949219 L 82.048828 82.949219 L 82.048828 88.75 C 82.048828 90.189941 83.217957 91.369141 84.667969 91.369141 L 100.1875 91.369141 C 101.6275 91.369141 102.80859 90.189941 102.80859 88.75 L 102.80859 75.160156 C 102.80859 73.720215 101.6275 72.541016 100.1875 72.541016 L 84.667969 72.541016 C 83.217957 72.541016 82.048828 73.720215 82.048828 75.160156 L 82.048828 80.949219 L 75.667969 80.949219 C 73.927917 80.949219 72.517578 79.540527 72.517578 77.810547 L 72.517578 61.849609 L 82.048828 61.849609 C 84.018799 61.849609 85.628906 60.24939 85.628906 58.279297 L 85.628906 14.970703 C 85.628906 13.000732 84.028381 11.410156 82.068359 11.410156 L 29.449219 11.410156 z M 29.449219 13.410156 L 82.068359 13.410156 C 82.928345 13.410156 83.628906 14.110596 83.628906 14.970703 L 83.628906 21.679688 L 27.888672 21.679688 L 27.888672 14.970703 C 27.888672 14.110596 28.589233 13.410156 29.449219 13.410156 z M 32.019531 16.542969 C 31.467285 16.542969 31.019531 16.990234 31.019531 17.542969 C 31.019531 18.095703 31.467285 18.542969 32.019531 18.542969 L 33.591797 18.542969 C 34.144043 18.542969 34.591797 18.095703 34.591797 17.542969 C 34.591797 16.990234 34.144043 16.542969 33.591797 16.542969 L 32.019531 16.542969 z M 37.019531 16.542969 C 36.467285 16.542969 36.019531 16.990234 36.019531 17.542969 C 36.019531 18.095703 36.467285 18.542969 37.019531 18.542969 L 38.591797 18.542969 C 39.144043 18.542969 39.591797 18.095703 39.591797 17.542969 C 39.591797 16.990234 39.144043 16.542969 38.591797 16.542969 L 37.019531 16.542969 z M 42.019531 16.542969 C 41.467285 16.542969 41.019531 16.990234 41.019531 17.542969 C 41.019531 18.095703 41.467285 18.542969 42.019531 18.542969 L 43.591797 18.542969 C 44.144043 18.542969 44.591797 18.095703 44.591797 17.542969 C 44.591797 16.990234 44.144043 16.542969 43.591797 16.542969 L 42.019531 16.542969 z M 64.494141 16.542969 C 63.941895 16.542969 63.494141 16.990234 63.494141 17.542969 C 63.494141 18.095703 63.941895 18.542969 64.494141 18.542969 L 79.496094 18.542969 C 80.04834 18.542969 80.496094 18.095703 80.496094 17.542969 C 80.496094 16.990234 80.04834 16.542969 79.496094 16.542969 L 64.494141 16.542969 z M 27.898438 23.679688 L 83.628906 23.679688 L 83.628906 58.279297 C 83.628906 59.149292 82.918823 59.849609 82.048828 59.849609 L 29.46875 59.849609 C 28.598755 59.849609 27.898438 59.149292 27.898438 58.279297 L 27.898438 23.679688 z M 44.71875 25.59375 L 40.488281 36.611328 L 42.082031 36.611328 L 46.335938 25.59375 L 44.71875 25.59375 z M 39.814453 27.595703 L 32.550781 31.347656 L 32.550781 32.486328 L 39.814453 36.226562 L 39.814453 34.572266 L 34.541016 31.912109 L 39.814453 29.261719 L 39.814453 27.595703 z M 47.009766 27.595703 L 47.009766 29.275391 L 52.320312 31.912109 L 47.009766 34.572266 L 47.009766 36.226562 L 54.273438 32.498047 L 54.273438 31.335938 L 47.009766 27.595703 z M 33.591797 39.380859 C 33.039551 39.380859 32.591797 39.828125 32.591797 40.380859 C 32.591797 40.933594 33.039551 41.380859 33.591797 41.380859 L 40.488281 41.380859 C 41.040527 41.380859 41.488281 40.933594 41.488281 40.380859 C 41.488281 39.828125 41.040527 39.380859 40.488281 39.380859 L 33.591797 39.380859 z M 43.265625 44.335938 C 42.713379 44.335938 42.265625 44.783203 42.265625 45.335938 C 42.265625 45.888672 42.713379 46.335937 43.265625 46.335938 L 74.955078 46.335938 C 75.507324 46.335938 75.955078 45.888672 75.955078 45.335938 C 75.955078 44.783203 75.507324 44.335938 74.955078 44.335938 L 43.265625 44.335938 z M 33.591797 49.291016 C 33.039551 49.291016 32.591797 49.738281 32.591797 50.291016 C 32.591797 50.84375 33.039551 51.291016 33.591797 51.291016 L 60.949219 51.291016 C 61.501465 51.291016 61.949219 50.84375 61.949219 50.291016 C 61.949219 49.738281 61.501465 49.291016 60.949219 49.291016 L 33.591797 49.291016 z M 39.273438 54.248047 C 38.721191 54.248047 38.273438 54.695312 38.273438 55.248047 C 38.273438 55.800781 38.721191 56.248047 39.273438 56.248047 L 44.953125 56.248047 C 45.505371 56.248047 45.953125 55.800781 45.953125 55.248047 C 45.953125 54.695312 45.505371 54.248047 44.953125 54.248047 L 39.273438 54.248047 z M 11.378906 74.541016 L 26.898438 74.541016 C 27.238464 74.541016 27.517578 74.82019 27.517578 75.160156 L 27.517578 88.75 C 27.517578 89.089844 27.238464 89.369141 26.898438 89.369141 L 11.378906 89.369141 C 11.028931 89.369141 10.748047 89.089844 10.748047 88.75 L 10.748047 75.160156 C 10.748047 74.810181 11.028931 74.541016 11.378906 74.541016 z M 84.667969 74.541016 L 100.1875 74.541016 C 100.52753 74.541016 100.80859 74.82019 100.80859 75.160156 L 100.80859 88.75 C 100.80859 89.089844 100.52753 89.369141 100.1875 89.369141 L 84.667969 89.369141 C 84.327942 89.369141 84.048828 89.089844 84.048828 88.75 L 84.048828 75.160156 C 84.048828 74.810181 84.317932 74.541016 84.667969 74.541016 z M 14.695312 76.0625 C 14.143066 76.0625 13.695312 76.509766 13.695312 77.0625 C 13.695312 77.615234 14.143066 78.0625 14.695312 78.0625 L 23.570312 78.0625 C 24.122559 78.0625 24.570312 77.615234 24.570312 77.0625 C 24.570312 76.509766 24.122558 76.0625 23.570312 76.0625 L 14.695312 76.0625 z M 87.990234 76.0625 C 87.437988 76.0625 86.990234 76.509766 86.990234 77.0625 C 86.990234 77.615234 87.437988 78.0625 87.990234 78.0625 L 96.865234 78.0625 C 97.41748 78.0625 97.865234 77.615234 97.865234 77.0625 C 97.865234 76.509766 97.41748 76.0625 96.865234 76.0625 L 87.990234 76.0625 z M 14.695312 80.955078 C 14.143066 80.955078 13.695312 81.402344 13.695312 81.955078 C 13.695312 82.507813 14.143066 82.955078 14.695312 82.955078 L 23.570312 82.955078 C 24.122559 82.955078 24.570312 82.507813 24.570312 81.955078 C 24.570312 81.402344 24.122558 80.955078 23.570312 80.955078 L 14.695312 80.955078 z M 87.990234 80.955078 C 87.437988 80.955078 86.990234 81.402344 86.990234 81.955078 C 86.990234 82.507813 87.437988 82.955078 87.990234 82.955078 L 96.865234 82.955078 C 97.41748 82.955078 97.865234 82.507813 97.865234 81.955078 C 97.865234 81.402344 97.41748 80.955078 96.865234 80.955078 L 87.990234 80.955078 z M 48.558594 81.400391 L 64.078125 81.400391 C 64.418152 81.400391 64.699219 81.679565 64.699219 82.019531 L 64.699219 95.609375 C 64.699219 95.949463 64.408142 96.230469 64.078125 96.230469 L 48.558594 96.230469 C 48.218628 96.230469 47.9375 95.959473 47.9375 95.609375 L 47.9375 82.019531 C 47.9375 81.679565 48.208618 81.400391 48.558594 81.400391 z M 51.878906 82.929688 C 51.466415 82.929688 51.109378 83.177101 50.957031 83.537109 C 50.906249 83.657112 50.878906 83.789673 50.878906 83.929688 C 50.878906 84.0672 50.906249 84.198826 50.957031 84.318359 C 51.109378 84.67696 51.466415 84.929688 51.878906 84.929688 L 60.757812 84.929688 C 61.3078 84.929688 61.757812 84.479736 61.757812 83.929688 C 61.757812 83.369629 61.3078 82.929688 60.757812 82.929688 L 51.878906 82.929688 z M 14.695312 85.847656 C 14.143066 85.847656 13.695312 86.294922 13.695312 86.847656 C 13.695312 87.400391 14.143066 87.847656 14.695312 87.847656 L 23.570312 87.847656 C 24.122559 87.847656 24.570312 87.400391 24.570312 86.847656 C 24.570312 86.294922 24.122558 85.847656 23.570312 85.847656 L 14.695312 85.847656 z M 87.990234 85.847656 C 87.437988 85.847656 86.990234 86.294922 86.990234 86.847656 C 86.990234 87.400391 87.437988 87.847656 87.990234 87.847656 L 96.865234 87.847656 C 97.41748 87.847656 97.865234 87.400391 97.865234 86.847656 C 97.865234 86.294922 97.41748 85.847656 96.865234 85.847656 L 87.990234 85.847656 z M 51.880859 87.818359 C 51.328613 87.818359 50.880859 88.265625 50.880859 88.818359 C 50.880859 89.371094 51.328613 89.818359 51.880859 89.818359 L 60.755859 89.818359 C 61.308105 89.818359 61.755859 89.371094 61.755859 88.818359 C 61.755859 88.265625 61.308105 87.818359 60.755859 87.818359 L 51.880859 87.818359 z M 51.880859 92.710938 C 51.328613 92.710938 50.880859 93.158203 50.880859 93.710938 C 50.880859 94.263672 51.328613 94.710937 51.880859 94.710938 L 60.755859 94.710938 C 61.308105 94.710938 61.755859 94.263672 61.755859 93.710938 C 61.755859 93.158203 61.308105 92.710938 60.755859 92.710938 L 51.880859 92.710938 z M 99.345703 96.587891 C 98.793457 96.587891 98.345703 97.035156 98.345703 97.587891 C 98.345703 98.140625 98.793457 98.587891 99.345703 98.587891 L 103.00195 98.587891 C 103.5542 98.587891 104.00195 98.140625 104.00195 97.587891 C 104.00195 97.035156 103.5542 96.587891 103.00195 96.587891 L 99.345703 96.587891 z"/></svg>